<svg xmlns="http://www.w3.org/2000/svg" viewBox="0 0 64 64"><path fill="#333333" fill-rule="evenodd" d="M31.9.693c-17.672 0-32 14.327-32 32 0 14.14 9.17 26.132 21.886 30.365 1.6.293 2.184-.695 2.184-1.544 0-.758-.028-2.77-.043-5.44-8.9 1.932-10.78-4.292-10.78-4.292-1.455-3.695-3.553-4.68-3.553-4.68-2.905-1.985.22-1.946.22-1.946 3.212.228 4.9 3.3 4.9 3.3 2.856 4.888 7.492 3.476 9.315 2.66.29-2.07 1.11-3.48 2.03-4.28-7.11-.807-14.58-3.554-14.58-15.816 0-3.493 1.243-6.35 3.29-8.586-.33-.81-1.428-4.063.313-8.47 0 0 2.687-.86 8.8 3.28 2.552-.708 5.29-1.063 8.01-1.075 2.718.01 5.457.36 8.01 1.07 6.11-4.14 8.793-3.28 8.793-3.28 1.747 4.403.65 7.66.32 8.47 2.05 2.233 3.29 5.09 3.29 8.582 0 12.293-7.483 15-14.61 15.79 1.15.99 2.17 2.94 2.17 5.926 0 4.277-.04 7.73-.04 8.777 0 .857.578 1.853 2.2 1.54 12.71-4.235 21.87-16.22 21.87-30.355 0-17.674-14.326-32-32-32"/></svg>