<svg xmlns="http://www.w3.org/2000/svg" viewBox="0 0 24 24"><path d="M10 5h10v2H10zM10 11h10v2H10zM10 17h10v2H10zM6.9 5v6H5.6V6.4c-.1.1-.1.2-.2.2-.1.1-.2.1-.3.2-.1 0-.3.1-.4.1-.1 0-.2 0-.3.1V5.9c.3-.1.6-.2.9-.4.3-.2.6-.3.8-.5h.8zM5.1 17.9h2.5V19H3.7v-.4c0-.3.1-.6.2-.8s.2-.4.4-.6.3-.4.5-.5.4-.3.5-.4c.2-.1.3-.2.4-.3l.3-.3c.1-.1.2-.2.2-.3 0-.1.1-.2.1-.4s-.1-.4-.2-.6c-.1-.1-.4-.2-.6-.2-.5 0-1 .2-1.4.6v-1.1c.5-.3 1.1-.5 1.7-.5.3 0 .6 0 .8.1l.6.3c.2.1.3.3.4.5.1.2.1.4.1.7 0 .3 0 .5-.1.7s-.3.3-.5.5c-.1.2-.3.3-.5.5-.2.1-.4.3-.6.4 0 .1-.2.2-.3.3l-.3.3c-.1.1-.2.2-.2.3s-.1.1-.1.1z"/></svg>