<svg viewBox="0 0 48 48" xmlns="http://www.w3.org/2000/svg">
 <path d="m24 44.15c-0.4 0-0.79167-0.06667-1.175-0.2-0.38333-0.13333-0.70833-0.33333-0.975-0.6l-17.2-17.2c-0.26667-0.26667-0.46667-0.59167-0.6-0.975s-0.2-0.775-0.2-1.175 0.066667-0.79167 0.2-1.175c0.13333-0.38333 0.33333-0.70833 0.6-0.975l17.2-17.2c0.26667-0.26667 0.59167-0.46667 0.975-0.6s0.775-0.2 1.175-0.2 0.79167 0.066667 1.175 0.2c0.38333 0.13333 0.70833 0.33333 0.975 0.6l17.2 17.2c0.26667 0.26667 0.46667 0.59167 0.6 0.975s0.2 0.775 0.2 1.175-0.06667 0.79167-0.2 1.175c-0.13333 0.38333-0.33333 0.70833-0.6 0.975l-17.2 17.2c-0.26667 0.26667-0.59167 0.46667-0.975 0.6s-0.775 0.2-1.175 0.2zm4.05-18.65-5.15 5.15c-0.3 0.3-0.44167 0.65-0.425 1.05 0.01667 0.4 0.175 0.75 0.475 1.05s0.65833 0.45 1.075 0.45 0.775-0.15 1.075-0.45l7.7-7.7c0.3-0.3 0.45-0.65 0.45-1.05s-0.15-0.75-0.45-1.05l-7.75-7.75c-0.3-0.3-0.65-0.45-1.05-0.45s-0.75 0.15-1.05 0.45-0.45 0.65833-0.45 1.075 0.15 0.775 0.45 1.075l5.1 5.15h-12.4c-0.43333 0-0.79167 0.14167-1.075 0.425s-0.425 0.64167-0.425 1.075 0.14167 0.79167 0.425 1.075 0.64167 0.425 1.075 0.425z"/>
</svg>
