<svg xmlns="http://www.w3.org/2000/svg" viewBox="0 0 48 48"><path d="M24 44.15q-.6 0-1.175-.2a2.5 2.5 0 0 1-.975-.6l-17.2-17.2q-.4-.4-.6-.975c-.2-.575-.2-.775-.2-1.175s.067-.792.2-1.175q.2-.574.6-.975l17.2-17.2q.4-.4.975-.6c.575-.2.775-.2 1.175-.2s.792.067 1.175.2q.575.2.975.6l17.2 17.2q.4.4.6.975c.2.575.2.775.2 1.175s-.067.792-.2 1.175a2.5 2.5 0 0 1-.6.975l-17.2 17.2q-.4.4-.975.6c-.575.2-.775.2-1.175.2m4.05-18.65-5.15 5.15q-.45.45-.425 1.05t.475 1.05c.45.45.658.45 1.075.45s.775-.15 1.075-.45l7.7-7.7q.45-.45.45-1.05c0-.6-.15-.75-.45-1.05l-7.75-7.75q-.45-.45-1.05-.45c-.6 0-.75.15-1.05.45s-.45.658-.45 1.075.15.775.45 1.075l5.1 5.15h-12.4q-.65 0-1.075.425c-.425.425-.425.642-.425 1.075s.142.792.425 1.075.642.425 1.075.425z"/></svg>