<svg xmlns="http://www.w3.org/2000/svg" viewBox="0 0 24 24"><path d="M7.5 10h3.1c-.3-.2-.5-.3-.7-.5-.4-.3-.6-.6-.8-.9-.1-.3-.2-.7-.2-1.1 0-.5.1-.9.3-1.2.2-.3.5-.6.9-.8.3-.2.7-.4 1.2-.5.4-.1.9-.1 1.3-.1 1.6 0 2.9.4 4 1.1V3.6c-.8-.4-2-.6-3.8-.6-.8 0-1.5.1-2.2.3-.7.2-1.4.4-2 .8-.5.4-1 .9-1.3 1.5s-.6 1.3-.6 2.1c0 .6.1 1.2.3 1.7.2.2.3.4.5.6zM16.9 14.6c-.1-.2-.2-.4-.4-.6h-3c.1.1.3.2.4.3.4.3.6.6.9 1 .2.3.3.8.3 1.2 0 .9-.3 1.5-.9 2-.6.5-1.6.7-2.8.7-.4 0-.8 0-1.2-.1-.4-.1-.9-.2-1.3-.3s-.8-.3-1.2-.5c-.4-.2-.7-.4-1-.7V20c.2.2.5.3.9.4l1.2.3c.4.1.8.1 1.2.2.4 0 .7.1 1 .1.8 0 1.6-.1 2.4-.2.7-.2 1.4-.4 2-.8s1-.9 1.4-1.5.5-1.3.5-2.2c0-.6-.1-1.2-.4-1.7zM4 11h16v2H4z"/></svg>