<svg xmlns="http://www.w3.org/2000/svg" viewBox="0 0 64 64"><g fill="none" fill-rule="evenodd"><path fill="#4285f4" d="M62.735 32.712c0-2.27-.204-4.45-.582-6.545H32.015v12.378h17.222c-.742 4-2.997 7.39-6.386 9.658v8.03h10.344c6.05-5.57 9.542-13.775 9.542-23.52z"/><path fill="#34a853" d="M32.015 63.985c8.64 0 15.883-2.865 21.178-7.753l-10.342-8.03c-2.863 1.92-6.53 3.056-10.834 3.056-8.335 0-15.39-5.63-17.906-13.193H3.417v8.29c5.266 10.46 16.088 17.63 28.597 17.63z"/><path fill="#fbbc05" d="M14.11 38.065c-.64-1.92-1.004-3.97-1.004-6.08s.363-4.16 1.003-6.08v-8.29H3.416C1.25 21.935.015 26.82.015 31.985c0 5.163 1.236 10.05 3.403 14.37l10.69-8.29z"/><path fill="#ea4335" d="M32.015 12.712c4.698 0 8.916 1.615 12.233 4.786l9.178-9.178C47.884 3.156 40.64-.015 32.016-.015c-12.51 0-23.332 7.17-28.598 17.63l10.69 8.29c2.518-7.563 9.572-13.193 17.907-13.193z"/><path d="M.015-.015h64v64h-64v-64z"/></g></svg>