<svg xmlns="http://www.w3.org/2000/svg" viewBox="0 0 1365.3 1365.3"><g transform="matrix(1.3333 0 0 -1.3333 0 1365.3)"><g transform="scale(.1)"><path d="m10240 5120c0 2827.7-2292.3 5120-5120 5120s-5120-2292.3-5120-5120c0-2555.5 1872.3-4673.7 4320-5057.8v3577.8h-1300v1480h1300v1128c0 1283.2 764.38 1992 1933.9 1992 560.17 0 1146.1-100 1146.1-100v-1260h-645.62c-636.03 0-834.38-394.67-834.38-799.57v-960.43h1420l-227-1480h-1193v-3577.8c2447.7 384.1 4320 2502.3 4320 5057.8" fill="#1877f2"/><path d="m7113 3640 227 1480h-1420v960.43c0 404.9 198.35 799.57 834.38 799.57h645.62v1260s-585.93 100-1146.1 100c-1169.5 0-1933.9-708.8-1933.9-1992v-1128h-1300v-1480h1300v-3577.8c260.67-40.898 527.84-62.199 800-62.199s539.33 21.301 800 62.199v3577.8h1193" fill="#fff"/></g></g></svg>