<svg xmlns="http://www.w3.org/2000/svg" xml:space="preserve" style="fill-rule:evenodd;clip-rule:evenodd;stroke-linejoin:round;stroke-miterlimit:1.41421" viewBox="0 0 64 64"><path d="m32.134 64.345 11.785-39.372H20.35z" style="fill:#e24329"/><path d="M32.134 64.345 20.35 24.973H3.835z" style="fill:#fc6d26"/><path d="M3.835 24.973.254 36.938c-.327 1.091.031 2.287.886 2.961l30.994 24.446z" style="fill:#fca326"/><path d="M3.835 24.973H20.35L13.253 1.26c-.366-1.22-1.956-1.22-2.321 0z" style="fill:#e24329"/><path d="m32.134 64.345 11.785-39.372h16.515z" style="fill:#fc6d26"/><path d="m60.434 24.973 3.581 11.965c.326 1.091-.031 2.287-.886 2.961L32.134 64.345z" style="fill:#fca326"/><path d="M60.434 24.973H43.919L51.016 1.26c.365-1.22 1.955-1.22 2.32 0z" style="fill:#e24329"/></svg>