<svg viewBox="0 0 64 64" version="1.1" xmlns="http://www.w3.org/2000/svg" xmlns:xlink="http://www.w3.org/1999/xlink" xml:space="preserve" style="fill-rule:evenodd;clip-rule:evenodd;stroke-linejoin:round;stroke-miterlimit:1.41421;"><g id="Group"><path id="Fill-4" d="M32.134,64.345l11.785,-39.372l-23.569,0l11.784,39.372Z" style="fill:#e24329;"/><path id="Fill-8" d="M32.134,64.345l-11.784,-39.372l-16.515,0l28.299,39.372Z" style="fill:#fc6d26;"/><path id="Fill-12" d="M3.835,24.973l-3.581,11.965c-0.327,1.091 0.031,2.287 0.886,2.961l30.994,24.446l-28.299,-39.372Z" style="fill:#fca326;"/><path id="Fill-16" d="M3.835,24.973l16.515,0l-7.097,-23.713c-0.366,-1.22 -1.956,-1.22 -2.321,0l-7.097,23.713Z" style="fill:#e24329;"/><path id="Fill-18" d="M32.134,64.345l11.785,-39.372l16.515,0l-28.3,39.372Z" style="fill:#fc6d26;"/><path id="Fill-20" d="M60.434,24.973l3.581,11.965c0.326,1.091 -0.031,2.287 -0.886,2.961l-30.995,24.446l28.3,-39.372Z" style="fill:#fca326;"/><path id="Fill-22" d="M60.434,24.973l-16.515,0l7.097,-23.713c0.365,-1.22 1.955,-1.22 2.32,0l7.098,23.713Z" style="fill:#e24329;"/></g></svg>
