<svg xmlns="http://www.w3.org/2000/svg" viewBox="0 0 64 64"><path fill="#00aced" d="M64 12.145a26.3 26.3 0 0 1-7.54 2.068 13.18 13.18 0 0 0 5.772-7.265 26.3 26.3 0 0 1-8.338 3.187 13.1 13.1 0 0 0-9.584-4.147c-7.252 0-13.13 5.88-13.13 13.13 0 1.03.115 2.032.34 2.993-10.914-.543-20.59-5.77-27.065-13.714a13.07 13.07 0 0 0-1.777 6.6c0 4.556 2.317 8.575 5.84 10.93a13.1 13.1 0 0 1-5.946-1.642v.166c0 6.36 4.525 11.667 10.53 12.874-1.1.3-2.26.46-3.458.46q-1.27-.002-2.47-.234c1.67 5.215 6.52 9.012 12.265 9.117a26.36 26.36 0 0 1-16.31 5.62c-1.06 0-2.107-.06-3.13-.183A37.2 37.2 0 0 0 20.124 58c24.15 0 37.358-20.008 37.358-37.36q0-.852-.038-1.698a26.6 26.6 0 0 0 6.552-6.797"/></svg>