<svg xmlns="http://www.w3.org/2000/svg" viewBox="0 0 64 64"><path fill="#00aced" d="M64 12.145c-2.355 1.045-4.886 1.75-7.54 2.068 2.71-1.625 4.79-4.198 5.772-7.265-2.538 1.505-5.347 2.598-8.338 3.187-2.395-2.552-5.808-4.147-9.584-4.147-7.252 0-13.13 5.88-13.13 13.13 0 1.03.115 2.032.34 2.993-10.914-.543-20.59-5.77-27.065-13.714-1.13 1.94-1.777 4.195-1.777 6.6 0 4.556 2.317 8.575 5.84 10.93-2.15-.068-4.176-.66-5.946-1.642v.166c0 6.36 4.525 11.667 10.53 12.874-1.1.3-2.26.46-3.458.46-.846 0-1.67-.08-2.47-.234 1.67 5.215 6.52 9.012 12.265 9.117-4.498 3.522-10.16 5.62-16.31 5.62-1.06 0-2.107-.06-3.13-.183C5.81 55.827 12.71 58 20.124 58c24.15 0 37.358-20.008 37.358-37.36 0-.568-.013-1.134-.038-1.698 2.566-1.85 4.792-4.163 6.552-6.797"/></svg>